<svg width="63" height="97" viewBox="0 0 63 97" fill="none" xmlns="http://www.w3.org/2000/svg">
<path fill-rule="evenodd" clip-rule="evenodd" d="M13.6239 2.0001C13.6239 1.36497 13.1091 0.850098 12.4739 0.850098C11.8388 0.850098 11.3239 1.36497 11.3239 2.0001V3.82412H9.38815C8.75303 3.82412 8.23816 4.339 8.23816 4.97412C8.23816 5.60925 8.75303 6.12412 9.38815 6.12412H11.3239V8.08371L3.85016 28.6918L3.99555 28.7445L3.98541 28.7592L2.61403 30.7432L2.41346 31.0334L2.41009 31.3861L2.0716 66.8088L0.329315 68.6292L0.0101318 68.9627V69.4243V94.9246V96.0746H1.16014H61.8435H62.9935V94.9246V69.4243V68.9358L62.6418 68.5966L61.2792 67.2824V33.0505V32.7931L61.1695 32.5602L59.4553 28.9228L58.6569 27.2287L58.5712 27.3388L51.3372 6.43759V6.12412H53.2727C53.9078 6.12412 54.4227 5.60925 54.4227 4.97412C54.4227 4.339 53.9078 3.82412 53.2727 3.82412H51.3372V2.0001C51.3372 1.36497 50.8224 0.850098 50.1872 0.850098C49.5521 0.850098 49.0372 1.36497 49.0372 2.0001V3.82412H47.1015C46.4663 3.82412 45.9515 4.339 45.9515 4.97412C45.9515 5.60925 46.4663 6.12412 47.1015 6.12412H49.0372V6.46012L42.4713 28.5918L42.3258 28.8525L39.9259 33.1512L39.78 33.4126V33.7118V56.0701L32.1371 47.1733V44.7803H34.0725C34.7076 44.7803 35.2225 44.2655 35.2225 43.6303C35.2225 42.9952 34.7076 42.4803 34.0725 42.4803H32.1371V40.6563C32.1371 40.0212 31.6222 39.5063 30.9871 39.5063C30.3519 39.5063 29.8371 40.0212 29.8371 40.6563V42.4803H27.9013C27.2662 42.4803 26.7513 42.9952 26.7513 43.6303C26.7513 44.2655 27.2662 44.7803 27.9013 44.7803H29.8371V47.1858L22.8808 55.5724V51.3686H22.5379V32.0585V31.7781L22.4089 31.5292L21.3041 29.398L21.4387 29.3486L13.6239 8.08173V6.12412H15.5594C16.1945 6.12412 16.7094 5.60925 16.7094 4.97412C16.7094 4.339 16.1945 3.82412 15.5594 3.82412H13.6239V2.0001ZM50.2708 10.3886L56.887 29.5047L55.4501 31.3525L55.208 31.664V32.0585V34.8765H46.1941V33.0505V32.7931L46.0844 32.5602L44.6169 29.4464L50.2708 10.3886ZM18.854 28.983L12.4809 11.6396L6.15816 29.0739L7.51582 30.6453L7.79563 30.9691V31.3971V34.8765H16.4666V32.0585V31.6146L16.7649 31.2858L18.854 28.983ZM20.5808 62.3054H20.2843L20.2379 62.3613V62.3054H4.41474L4.36715 67.286L4.36279 67.7412L4.04801 68.0701L2.31014 69.886V80.5093H20.5808V62.3054ZM2.31014 93.7746V82.8093H20.5808V93.7746H18.0813V91.8258C18.0813 88.5398 15.4175 85.876 12.1315 85.876C8.84547 85.876 6.18165 88.5398 6.18165 91.8258V93.7746H2.31014ZM15.7813 93.7746V91.8258C15.7813 89.8101 14.1472 88.176 12.1315 88.176C10.1157 88.176 8.48165 89.8101 8.48165 91.8258V93.7746H15.7813ZM22.8808 93.7746V82.8093H39.7803V93.7746H37.2803V93.6101C37.2803 90.5521 35.7304 87.7026 33.1634 86.0408C32.161 85.3919 30.8755 85.3778 29.8588 85.989C27.1262 87.6316 25.4194 90.5846 25.3813 93.7746H22.8808ZM27.6815 93.7746H34.9803V93.6101C34.9803 91.3322 33.8258 89.2095 31.9135 87.9716C31.655 87.8042 31.3145 87.7975 31.0438 87.9603C28.9971 89.1905 27.7195 91.3985 27.6815 93.7746ZM42.0803 93.7746V82.8093H60.6935V93.7746H56.4793V91.8258C56.4793 88.5398 53.8155 85.876 50.5295 85.876C47.2435 85.876 44.5797 88.5398 44.5797 91.8258V93.7746H42.0803ZM54.1793 91.8258V93.7746H46.8797V91.8258C46.8797 89.8101 48.5138 88.176 50.5295 88.176C52.5452 88.176 54.1793 89.8101 54.1793 91.8258ZM42.0803 80.5093H60.6935V69.9129L59.3309 68.5987L58.9792 68.2596V67.771V62.3054H42.0803V80.5093ZM22.8808 80.5093H39.7803V62.3054H22.8808V80.5093ZM20.2379 59.1735V60.0054H4.43672L4.70661 31.7608L5.03261 31.2892L5.49563 31.8251V36.0265V37.1765H6.64563H17.6166H18.7666V36.0265V32.5024L19.7569 31.4109L20.2379 32.3388V59.1735ZM39.7803 60.0054H22.8808V59.175L31.003 49.3828L39.7803 59.6V60.0054ZM58.9792 60.0054H42.0803V51.3686H42.08V34.0111L43.2434 31.9272L43.8941 33.3079V36.0265V37.1765H45.0441H56.358H57.508V36.0265V32.453L58.1732 31.5975L58.9792 33.3079V60.0054ZM9.85284 43.2967C9.85284 42.6616 9.33797 42.1467 8.70284 42.1467C8.06771 42.1467 7.55283 42.6616 7.55283 43.2967V55.8623C7.55283 56.4974 8.06771 57.0123 8.70284 57.0123C9.33797 57.0123 9.85284 56.4974 9.85284 55.8623V43.2967ZM16.0239 43.2967C16.0239 42.6616 15.5091 42.1467 14.8739 42.1467C14.2388 42.1467 13.7239 42.6616 13.7239 43.2967V55.8623C13.7239 56.4974 14.2388 57.0123 14.8739 57.0123C15.5091 57.0123 16.0239 56.4974 16.0239 55.8623V43.2967ZM47.1013 42.1467C47.7365 42.1467 48.2513 42.6616 48.2513 43.2967V55.8623C48.2513 56.4974 47.7365 57.0123 47.1013 57.0123C46.4662 57.0123 45.9513 56.4974 45.9513 55.8623V43.2967C45.9513 42.6616 46.4662 42.1467 47.1013 42.1467ZM54.4224 43.2967C54.4224 42.6616 53.9075 42.1467 53.2724 42.1467C52.6373 42.1467 52.1224 42.6616 52.1224 43.2967V55.8623C52.1224 56.4974 52.6373 57.0123 53.2724 57.0123C53.9075 57.0123 54.4224 56.4974 54.4224 55.8623V43.2967ZM51.609 64.2383L50.8246 63.584L50.0823 64.2857L48.2594 66.0091C45.9106 68.2296 44.5797 71.3193 44.5797 74.5515V76.3642V77.5142H45.7297H56.015H57.165V76.3642V74.3754C57.165 70.8886 55.6171 67.5817 52.9396 65.3482L51.609 64.2383ZM49.8394 67.6805L50.9201 66.6588L51.4663 67.1144C53.6199 68.9109 54.865 71.5708 54.865 74.3754V75.2142H46.8797V74.5515C46.8797 71.9517 47.9502 69.4665 49.8394 67.6805ZM11.7407 63.584L12.5251 64.2383L13.8557 65.3482C16.5333 67.5817 18.0811 70.8886 18.0811 74.3754V76.3642V77.5142H16.9311H6.64582H5.49582V76.3642V74.5515C5.49582 71.3193 6.8267 68.2296 9.1755 66.0091L10.9985 64.2857L11.7407 63.584ZM11.8363 66.6588L10.7556 67.6805C8.86631 69.4665 7.79581 71.9517 7.79581 74.5515V75.2142H15.7811V74.3754C15.7811 71.5708 14.5361 68.9109 12.3824 67.1144L11.8363 66.6588ZM29.7018 65.7612C30.1125 65.6649 30.5429 65.6137 30.9872 65.6137C31.5384 65.6137 32.068 65.6925 32.5654 65.8385L31.579 67.3335C31.3866 67.2981 31.1889 67.2797 30.9877 67.2797C30.8948 67.2797 30.8026 67.2836 30.7113 67.2913L29.7018 65.7612ZM34.085 69.5943H36.2147C35.9659 68.5612 35.3899 67.64 34.5911 66.9446L33.5484 68.525C33.7918 68.8387 33.9766 69.1997 34.085 69.5943ZM36.2157 71.8943H33.8167C33.7071 72.0936 33.5762 72.2795 33.4272 72.4492L34.7297 74.4234C35.4576 73.7432 35.9821 72.8684 36.2157 71.8943ZM30.9877 73.5478C31.1204 73.5478 31.2517 73.5397 31.3809 73.5241L32.7487 75.5972C32.1989 75.7797 31.6067 75.8793 30.9872 75.8793C30.474 75.8793 29.9795 75.811 29.5123 75.6837L30.9221 73.5471C30.9439 73.5475 30.9658 73.5478 30.9877 73.5478ZM28.7516 72.6604L27.4618 74.6153C26.6211 73.9117 26.0149 72.9627 25.7587 71.8943H28.1586C28.3156 72.1799 28.5165 72.4379 28.7516 72.6604ZM27.8903 69.5943H25.7598C26.0311 68.4675 26.6917 67.4738 27.606 66.7611L28.6204 68.2987C28.2808 68.66 28.0259 69.101 27.8903 69.5943ZM30.9872 63.3137C26.794 63.3137 23.3232 66.6027 23.3232 70.7465C23.3232 74.8903 26.794 78.1793 30.9872 78.1793C35.1804 78.1793 38.6513 74.8903 38.6513 70.7465C38.6513 66.6027 35.1804 63.3137 30.9872 63.3137ZM30.9877 69.5797C30.4472 69.5797 30.0806 69.9919 30.0806 70.4137C30.0806 70.8355 30.4472 71.2478 30.9877 71.2478C31.5282 71.2478 31.8947 70.8355 31.8947 70.4137C31.8947 69.9919 31.5282 69.5797 30.9877 69.5797Z" fill="#0A8BFE"/>
</svg>
