<svg width="107" height="79" viewBox="0 0 107 79" fill="none" xmlns="http://www.w3.org/2000/svg">
<path d="M104.985 46.0978H81.3613L60.5527 30.7713V19.7342V18.1568V2.03215C60.5527 0.90888 59.6515 0 58.5377 0C57.4238 0 56.5226 0.90888 56.5226 2.03215V6.09646H50.4774V2.03215C50.4774 0.90888 49.5762 0 48.4623 0C47.3485 0 46.4473 0.90888 46.4473 2.03215V17.7021C46.4473 17.7829 46.4835 17.8509 46.4926 17.9292C46.4835 18.0074 46.4473 18.076 46.4473 18.1563V30.7713L25.6387 46.0978H2.01507C0.901238 46.0978 0 47.0067 0 48.1299V76.5801C0 77.7034 0.901238 78.6122 2.01507 78.6122H26.2966H80.7034H104.985C106.099 78.6122 107 77.7034 107 76.5801V48.1299C107 47.0067 106.099 46.0978 104.985 46.0978ZM50.3711 46.0978H47.4583L50.4321 32.3056C50.4421 32.2598 50.4275 32.2167 50.4341 32.1714C50.4562 32.0505 50.4774 31.9286 50.4774 31.8036V20.1889H56.5226V31.8036C56.5226 31.9784 56.5488 32.1491 56.5916 32.3147C56.6007 32.3559 56.5896 32.396 56.6017 32.4366L60.516 46.0983H56.6294C55.5156 46.0983 54.6143 47.0072 54.6143 48.1305V54.2269H52.3867V48.1305C52.3862 47.0067 51.4849 46.0978 50.3711 46.0978ZM32.4723 46.0978L45.3828 36.5883L43.3325 46.0978H32.4723ZM64.7108 46.0978L62.0852 36.9328L74.5277 46.0978H64.7108ZM56.5226 10.1608V16.1241H50.4774V10.1608H56.5226ZM4.03013 50.1621H24.2815V74.5479H22.2665V64.3872C22.2665 63.2639 21.3652 62.355 20.2514 62.355C19.1376 62.355 18.2363 63.2639 18.2363 64.3872V74.5479H16.2213V64.3872C16.2213 63.2639 15.32 62.355 14.2062 62.355C13.0924 62.355 12.1911 63.2639 12.1911 64.3872V74.5479H10.1761V64.3872C10.1761 63.2639 9.27485 62.355 8.16102 62.355C7.04719 62.355 6.14595 63.2639 6.14595 64.3872V74.5479C-0.953188 74.5479 9.25543 74.5479 4.03013 74.5479V50.1621ZM28.3117 50.1621H48.356V56.2586C48.356 57.3818 49.2573 58.2907 50.3711 58.2907H56.6289C57.7427 58.2907 58.644 57.3818 58.644 56.2586V50.1621H78.6883V74.5479H76.6733V54.2264C76.6733 53.1031 75.772 52.1942 74.6582 52.1942C73.5444 52.1942 72.6431 53.1031 72.6431 54.2264V74.5479H70.6281V54.2264C70.6281 53.1031 69.7268 52.1942 68.613 52.1942C67.4992 52.1942 66.5979 53.1031 66.5979 54.2264V74.5479H64.5829V54.2264C64.5829 53.1031 63.6816 52.1942 62.5678 52.1942C61.454 52.1942 60.5527 53.1031 60.5527 54.2264V74.5479H58.5377V64.3872C58.5377 63.2639 57.6364 62.355 56.5226 62.355C55.4088 62.355 54.5075 63.2639 54.5075 64.3872V74.5479H52.4925V64.3872C52.4925 63.2639 51.5912 62.355 50.4774 62.355C49.3636 62.355 48.4623 63.2639 48.4623 64.3872V74.5479H46.4473V54.2264C46.4473 53.1031 45.546 52.1942 44.4322 52.1942C43.3184 52.1942 42.4171 53.1031 42.4171 54.2264V74.5479H40.4021V54.2264C40.4021 53.1031 39.5008 52.1942 38.387 52.1942C37.2732 52.1942 36.3719 53.1031 36.3719 54.2264V74.5479H34.3569V54.2264C34.3569 53.1031 33.4556 52.1942 32.3418 52.1942C31.228 52.1942 30.3267 53.1031 30.3267 54.2264V74.5479H28.3117V50.1621ZM102.97 74.5479C96.088 74.5479 106.003 74.5479 100.854 74.5479V64.3872C100.854 63.2639 99.9528 62.355 98.839 62.355C97.7252 62.355 96.8239 63.2639 96.8239 64.3872V74.5479H94.8089V64.3872C94.8089 63.2639 93.9076 62.355 92.7938 62.355C91.68 62.355 90.7787 63.2639 90.7787 64.3872V74.5479H88.7637V64.3872C88.7637 63.2639 87.8624 62.355 86.7486 62.355C85.6348 62.355 84.7335 63.2639 84.7335 64.3872V74.5479H82.7185V50.1621H102.97V74.5479Z" fill="#0A8BFE"/>
</svg>
