<svg width="78" height="55" viewBox="0 0 78 55" fill="none" xmlns="http://www.w3.org/2000/svg">
<path d="M76.6999 46.7857H75.3999V43.0203L77.9869 25.1103C78.0133 24.928 77.9997 24.7422 77.9471 24.5655C77.8945 24.3888 77.8041 24.2253 77.6821 24.0861C77.56 23.947 77.4092 23.8354 77.2397 23.7589C77.0703 23.6824 76.8862 23.6429 76.6999 23.6429H74.0999C70.0016 23.6299 66.04 25.0996 62.9614 27.7752L66.279 9.72999C66.3131 9.54471 66.3055 9.35429 66.257 9.17219C66.2085 8.9901 66.12 8.82077 65.998 8.67619C65.876 8.5316 65.7234 8.41529 65.5509 8.33548C65.3785 8.25567 65.1904 8.2143 65 8.2143H62.4C58.2374 8.20603 54.1583 9.36942 50.6394 11.5686C48.1083 8.13572 44.7923 5.34351 40.962 3.41988C37.1318 1.49626 32.8958 0.49574 28.6 0.500014H26C25.8138 0.500006 25.6297 0.53958 25.4603 0.616057C25.2908 0.692534 25.14 0.804127 25.0179 0.943281C24.8959 1.08244 24.8055 1.2459 24.7529 1.42261C24.7003 1.59932 24.6867 1.78514 24.713 1.96749L26.1034 11.5943C22.5708 9.38743 18.4783 8.21552 14.3 8.2143H11.7001C11.5096 8.2143 11.3216 8.25567 11.1491 8.33548C10.9766 8.41529 10.824 8.5316 10.702 8.67619C10.58 8.82077 10.4916 8.9901 10.443 9.17219C10.3945 9.35429 10.387 9.54471 10.421 9.72999L12.2137 19.4823C10.3802 18.8332 8.44748 18.5009 6.50006 18.5H1.30007C1.09882 18.5 0.90031 18.5462 0.720183 18.635C0.540056 18.7237 0.383229 18.8527 0.262055 19.0116C0.14088 19.1705 0.0586664 19.3551 0.0218898 19.5508C-0.0148867 19.7465 -0.00522197 19.9479 0.0501226 20.1393L4.77659 36.5H3.90007C3.55528 36.5 3.22463 36.6355 2.98083 36.8766C2.73703 37.1177 2.60007 37.4447 2.60007 37.7857V46.7857H1.30007C0.955289 46.7857 0.62463 46.9212 0.380833 47.1623C0.137036 47.4034 7.25925e-05 47.7304 7.25925e-05 48.0714V53.2143C7.25925e-05 53.5553 0.137036 53.8823 0.380833 54.1234C0.62463 54.3645 0.955289 54.5 1.30007 54.5H76.6999C77.0447 54.5 77.3754 54.3645 77.6192 54.1234C77.863 53.8823 77.9999 53.5553 77.9999 53.2143V48.0714C77.9999 47.7304 77.863 47.4034 77.6192 47.1623C77.3754 46.9212 77.0447 46.7857 76.6999 46.7857ZM54.6 46.7857V42.9286C54.6 42.5876 54.463 42.2606 54.2192 42.0194C53.9754 41.7783 53.6448 41.6429 53.3 41.6429H48.1C47.7552 41.6429 47.4245 41.7783 47.1808 42.0194C46.937 42.2606 46.8 42.5876 46.8 42.9286V46.7857H41.6V42.9286C41.6 42.5876 41.463 42.2606 41.2192 42.0194C40.9754 41.7783 40.6448 41.6429 40.3 41.6429H35.1C34.7552 41.6429 34.4246 41.7783 34.1808 42.0194C33.937 42.2606 33.8 42.5876 33.8 42.9286V46.7857H20.0386L10.0193 36.8766C9.8986 36.7572 9.75528 36.6625 9.59755 36.5979C9.43983 36.5332 9.27078 36.5 9.10006 36.5H7.80006V33.9286H14.3C14.5567 33.9286 14.8076 33.8535 15.0211 33.7126L18.5936 31.3571H26.8192L35.554 38.7619C35.7896 38.9616 36.0897 39.0714 36.4 39.0714H67.1438L72.7999 43.5465V46.7857H54.6ZM52 46.7857H49.4V44.2143H52V46.7857ZM39 46.7857H36.4V44.2143H39V46.7857ZM53.3 36.5H48.1V28.5938L53.3 35.0224V36.5ZM45.5 36.5H39.1048L45.5 28.5938V36.5ZM74.0999 26.2143H75.201L73.1349 40.5179L68.4125 36.7817C68.1818 36.5993 67.8953 36.4999 67.6 36.5H60.3411C61.1894 33.5378 62.9922 30.9304 65.4755 29.0739C67.9588 27.2175 70.987 26.2134 74.0999 26.2143ZM63.4422 10.7857L59.5774 31.8071C58.7245 33.2158 58.0895 34.7426 57.6933 36.337L55.9 34.1205V27.5C55.9058 22.6473 54.5834 17.8835 52.0731 13.7139C55.167 11.7935 58.7472 10.7783 62.4 10.7857H63.4422ZM28.6 3.07144C31.8439 3.07058 35.0562 3.70185 38.0533 4.92919C41.0505 6.15654 43.7737 7.9559 46.0675 10.2245C48.3613 12.493 50.1806 15.1864 51.4216 18.1506C52.6626 21.1148 53.3009 24.2918 53.3 27.5V30.9062L47.8151 24.125C47.6933 23.9744 47.5389 23.8529 47.3631 23.7694C47.1874 23.6858 46.995 23.6425 46.8 23.6425C46.605 23.6425 46.4126 23.6858 46.2368 23.7694C46.0611 23.8529 45.9066 23.9744 45.7849 24.125L36.225 35.9436L31.6913 32.1005L27.4989 3.07144H28.6ZM14.3 10.7857C18.7854 10.7864 23.1335 12.3158 26.612 15.1163L28.6985 29.5636L28.146 29.0953C27.9104 28.8955 27.6103 28.7857 27.3 28.7857H18.2C17.9434 28.7857 17.6924 28.8609 17.4789 29.0017L16.7007 29.5149L13.2578 10.7857H14.3ZM6.50006 21.0714C8.67195 21.0721 10.8153 21.5606 12.7685 22.5L14.3436 31.069L13.9065 31.3571H6.50006C6.33609 31.3573 6.17363 31.3882 6.02134 31.4483L3.02257 21.0714H6.50006ZM5.20006 39.0714H8.56153L16.3615 46.7857H5.20006V39.0714ZM75.3999 51.9286H2.60007V49.3571H75.3999V51.9286Z" fill="#0A8BFE"/>
</svg>
