<svg width="77" height="79" viewBox="0 0 77 79" fill="none" xmlns="http://www.w3.org/2000/svg">
<path fill-rule="evenodd" clip-rule="evenodd" d="M73.2085 69.7423H74.7321C75.6104 69.7423 76.3222 70.4331 76.3222 71.2853V77.4572C76.3222 78.3088 75.6104 79.0002 74.7321 79.0002H1.59006C0.7118 79.0002 0 78.3088 0 77.4572V71.2853C0 70.4331 0.7118 69.7423 1.59006 69.7423H3.11366V42.4335H1.59006C0.7118 42.4335 0 41.7428 0 40.8906C0 40.0383 0.7118 39.3476 1.59006 39.3476H3.11366V34.8712C3.11366 34.0756 3.73415 33.421 4.53105 33.3372C4.30558 31.2187 5.18694 29.0663 7.02855 27.5414L11.8068 23.5834C12.4012 23.0903 13.277 23.0909 13.8714 23.5828L18.6503 27.5408C18.9155 27.7608 19.1596 27.9947 19.385 28.2388V26.2589C19.385 25.4066 20.0968 24.7159 20.9751 24.7159H22.2602C22.8732 18.726 27.013 13.7276 32.6304 11.7103V6.32498C32.6304 5.47273 33.3422 4.78201 34.2204 4.78201H36.5713V1.54297C36.5713 0.690721 37.2831 0 38.1614 0C39.039 0 39.7515 0.690721 39.7515 1.54297V4.78201H42.1018C42.9794 4.78201 43.6918 5.47273 43.6918 6.32498V11.7103C49.3092 13.7276 53.4489 18.726 54.062 24.7159H55.3471C56.2253 24.7159 56.9371 25.4066 56.9371 26.2589V28.2388C57.1626 27.9947 57.4067 27.7608 57.6725 27.5414L62.4508 23.5834C63.0452 23.0909 63.9204 23.0909 64.5154 23.5834L69.2936 27.5414C71.1352 29.0663 72.0166 31.2187 71.7911 33.3372C72.588 33.421 73.2085 34.0756 73.2085 34.8712V39.3476H74.7321C75.6104 39.3476 76.3222 40.0389 76.3222 40.8906C76.3222 41.7428 75.6104 42.4335 74.7321 42.4335H73.2085V69.7423ZM65.0731 69.7423H70.0284V42.4335H56.9371V44.3056C57.6874 44.4292 58.2595 45.0614 58.2595 45.8251C58.2595 46.5881 57.6874 47.2204 56.9371 47.3439V69.7423H61.893V52.0874C61.893 51.2351 62.6048 50.5444 63.4831 50.5444C64.3607 50.5444 65.0731 51.2351 65.0731 52.0874V69.7423ZM48.4713 62.092V69.7423H53.7576V47.368H22.5645V69.7423H27.8509V62.092H27.4732C26.5956 62.092 25.8832 61.4012 25.8832 60.549C25.8832 59.6973 26.5956 59.006 27.4732 59.006H27.9739C28.7403 54.2192 33.0167 50.5444 38.1608 50.5444C43.3055 50.5444 47.5819 54.2192 48.3483 59.006H48.849C49.7266 59.006 50.439 59.6973 50.439 60.549C50.439 61.4012 49.7266 62.092 48.849 62.092H48.4713ZM31.2117 59.006H45.1105C44.3856 55.9315 41.5465 53.6303 38.1614 53.6303C34.7763 53.6303 31.9366 55.9315 31.2117 59.006ZM53.757 34.7235V27.8018H39.7409L53.757 34.7235ZM33.0496 38.7828H22.5645V44.2821H53.757V38.7828H43.2726C42.5937 40.8954 40.5589 42.4335 38.1608 42.4335C35.7627 42.4335 33.7279 40.8954 33.0496 38.7828ZM35.9881 37.2393C35.9881 38.4019 36.9627 39.3476 38.1608 39.3476C39.3589 39.3476 40.3334 38.4019 40.3334 37.2393C40.3334 36.0772 39.3589 35.1315 38.1608 35.1315C36.9627 35.1315 35.9881 36.0772 35.9881 37.2393ZM43.2726 35.6969H48.7167L38.1608 30.4839L27.6049 35.6969H33.0496C33.7279 33.5837 35.7627 32.0456 38.1608 32.0456C40.5589 32.0456 42.5937 33.5837 43.2726 35.6969ZM56.9371 38.7587V39.3476H70.0284V36.4141H69.7023H69.698H69.6924H58.0111C58.1676 36.6528 58.2595 36.9355 58.2595 37.2399C58.2595 38.0029 57.6874 38.6352 56.9371 38.7587ZM63.4831 26.7856L59.7365 29.8885C58.6135 30.8185 58.1309 32.0998 58.3856 33.3282H68.5806C68.8353 32.0998 68.3526 30.8185 67.229 29.8885L63.4831 26.7856ZM40.5117 7.86795H35.8105V10.9207C36.5776 10.8104 37.362 10.7526 38.1608 10.7526C38.9595 10.7526 39.744 10.8104 40.5117 10.9207V7.86795ZM50.8583 24.7159C50.0726 18.5934 44.68 13.8385 38.1608 13.8385C31.6415 13.8385 26.249 18.594 25.4633 24.7171C25.9555 24.7239 26.3935 24.9474 26.6805 25.2936H36.207C36.4984 24.9415 36.9458 24.7159 37.4475 24.7159H50.8583ZM36.2234 27.2415C36.3033 27.3349 36.3945 27.419 36.4947 27.492L22.5645 34.7235V27.8018H25.4403C25.9338 27.8018 26.3748 27.5837 26.6664 27.2415H36.2234ZM12.8391 26.7856L9.09253 29.8885C7.96955 30.8185 7.48694 32.0998 7.7416 33.3282H17.936C18.1913 32.0998 17.708 30.8185 16.5851 29.8885L12.8391 26.7856ZM18.3111 36.4141H6.29315V39.3476H19.3844V38.7587C18.6341 38.6352 18.0627 38.0029 18.0627 37.2399C18.0627 36.9355 18.1546 36.6528 18.3111 36.4141ZM19.3844 42.4335H6.29315V69.7423H11.249V52.0874C11.249 51.2351 11.9608 50.5444 12.8391 50.5444C13.7167 50.5444 14.4292 51.2351 14.4292 52.0874V69.7423H19.3844V47.3439C18.6341 47.2204 18.0627 46.5881 18.0627 45.8251C18.0627 45.0614 18.6341 44.4292 19.3844 44.3056V42.4335ZM3.1795 75.9142H73.1421V72.8283H55.3502H55.3471H55.344H44.5204C43.6428 72.8283 42.9303 72.1369 42.9303 71.2853C42.9303 70.4331 43.6428 69.7423 44.5204 69.7423H45.2912V62.092H31.0304V69.7423H31.7999C32.6782 69.7423 33.39 70.4331 33.39 71.2853C33.39 72.1369 32.6782 72.8283 31.7999 72.8283H20.9776H20.9745H20.9714H3.1795V75.9142Z" fill="#0A8BFE"/>
</svg>
