<svg width="81" height="82" viewBox="0 0 81 82" fill="none" xmlns="http://www.w3.org/2000/svg">
<path d="M77.5566 49.9661V42.0767H54.2896V17.0937H47.8266V11.8341H44.8807L42.2955 3.94469H41.3635V0H38.7783V3.94469H37.8463L35.2611 11.8341H32.3153V17.0937H25.8522V42.0767H2.58522V49.9661H0V81.5236H80.1418V49.9661H77.5566ZM46.534 68.3746H33.6079V59.1704C33.6079 55.5452 36.5072 52.5959 40.0709 52.5959C43.6346 52.5959 46.534 55.5452 46.534 59.1704V68.3746ZM40.0709 49.9661C35.0814 49.9661 31.0226 54.0962 31.0226 59.1704V68.3746H23.267V51.9581L40.0709 39.748L56.8749 51.9581V68.3746H49.1192V59.1704C49.1192 54.0962 45.0604 49.9661 40.0709 49.9661ZM33.6079 31.5575C33.6079 27.9324 36.5072 24.983 40.0709 24.983C43.6346 24.983 46.534 27.9324 46.534 31.5575C46.534 34.4779 44.6054 37.0262 41.8948 37.8414L40.0709 36.516L38.247 37.8414C35.5351 37.0262 33.6079 34.4805 33.6079 31.5575ZM59.4601 52.5959H77.5566V68.3746H59.4601V52.5959ZM74.9714 44.7065V49.9661H58.5811L54.2896 46.8471V44.7065H74.9714ZM39.7103 6.57448H40.4328L42.1559 11.8341H37.9872L39.7103 6.57448ZM34.9005 14.4639H45.2414V17.0937H34.9005V14.4639ZM32.3153 19.7234H47.8266H51.7044V44.9695L44.3559 39.631C47.2113 38.0518 49.1192 34.9894 49.1192 31.5575C49.1192 26.482 45.0604 22.3532 40.0709 22.3532C35.0814 22.3532 31.0226 26.482 31.0226 31.5575C31.0226 34.992 32.9292 38.0531 35.7846 39.6297L28.4374 44.9695V19.7234H32.3153ZM5.17044 44.7065H25.8522V46.8471L21.5607 49.9661H5.17044V44.7065ZM20.6818 52.5959V68.3746H2.58522V52.5959H20.6818ZM10.3409 78.8938H7.75566V76.264H10.3409V78.8938ZM20.6818 78.8938H18.0965V76.264H20.6818V78.8938ZM31.0226 78.8938H28.4374V76.264H31.0226V78.8938ZM41.3635 78.8938H38.7783V76.264H41.3635V78.8938ZM51.7044 78.8938H49.1192V76.264H51.7044V78.8938ZM62.0453 78.8938H59.4601V76.264H62.0453V78.8938ZM72.3862 78.8938H69.801V76.264H72.3862V78.8938ZM74.9714 78.8938V73.6342H67.2157V78.8938H64.6305V73.6342H56.8749V78.8938H54.2896V73.6342H46.534V78.8938H43.9487V73.6342H36.1931V78.8938H33.6079V73.6342H25.8522V78.8938H23.267V73.6342H15.5113V78.8938H12.9261V73.6342H5.17044V78.8938H2.58522V71.0044H77.5566V78.8938H74.9714Z" fill="#0A8BFE"/>
</svg>
