<svg width="83" height="90" viewBox="0 0 83 90" fill="none" xmlns="http://www.w3.org/2000/svg">
<path fill-rule="evenodd" clip-rule="evenodd" d="M70.5449 0.887207L68.3605 0.90859L67.035 16.7666L66.8546 16.2765L66.3625 14.9396L65.1957 15.7569H65.1956L65.1954 15.7571L65.1945 15.7577L65.1907 15.7603L65.1758 15.7708L65.1174 15.8117L64.8979 15.965C64.71 16.0961 64.4447 16.2809 64.1353 16.4956C63.516 16.9254 62.7225 17.4731 62.0204 17.9487C61.1986 18.5055 60.2667 19.2734 59.5585 19.8834C59.2003 20.192 58.8913 20.4672 58.6716 20.6655C58.5617 20.7647 58.4738 20.8449 58.4131 20.9006L58.3429 20.9653L58.3242 20.9826L58.3191 20.9873L58.3177 20.9887L58.3172 20.9891L58.3171 20.9892C58.317 20.9893 58.317 20.9893 59.0644 21.7923L58.317 20.9893L57.9674 21.3147V21.7923V25.6703H57.8232V27.8644H57.9674V29.4117L57.3129 30.0692L56.9934 30.3902V30.8431V40.1957L56.624 40.3813L56.0194 40.685V41.3616V83.5632H53.5229V25.9464V25.8129L53.4908 25.6833L52.4258 25.9464C53.4908 25.6833 53.4908 25.6831 53.4907 25.6829L53.4906 25.6824L53.4903 25.6811L53.4893 25.6771L53.4858 25.6633L53.4732 25.6137C53.4623 25.5711 53.4463 25.5097 53.4253 25.4313C53.3833 25.2745 53.3212 25.0495 53.2394 24.7709C53.0761 24.2142 52.8334 23.44 52.5145 22.5659C51.8849 20.8403 50.9263 18.635 49.6444 16.9615C48.4986 15.4656 46.5883 13.7471 45.026 12.4414C44.2333 11.7789 43.5091 11.2054 42.983 10.7974C42.7197 10.5932 42.5056 10.4301 42.3566 10.3176C42.2821 10.2614 42.2239 10.2177 42.1839 10.1879L42.138 10.1537L42.1258 10.1446L42.1224 10.1421L42.1215 10.1414L42.1212 10.1412C42.121 10.1411 42.121 10.141 41.4689 11.0233L42.121 10.141L41.4345 9.63364L40.774 10.1744L37.7857 12.6208L37.3836 12.95V13.4697V24.8493H36.4885H30.1985H29.1014V25.9464V88.3299V89.4269H30.1985H56.4102H57.5072V89.4248H81.1416H82.2386V88.3278V41.3616V40.8146L81.8018 40.4854L81.2646 40.0807V30.5985V30.0515L80.8278 29.7223L80.2907 29.3176V21.5477V21.1165L79.997 20.8007L79.1936 21.5477C79.997 20.8007 79.997 20.8007 79.9969 20.8006L79.9968 20.8004L79.9964 20.8L79.9951 20.7986L79.9908 20.794L79.9753 20.7775L79.9181 20.7167C79.8687 20.6646 79.7975 20.5898 79.7082 20.4975C79.53 20.313 79.2786 20.0573 78.9852 19.7708C78.4081 19.2075 77.6316 18.4893 76.9167 17.9696C76.2187 17.4621 75.4104 16.9043 74.7808 16.476C74.4651 16.2612 74.1925 16.0778 73.9987 15.948C73.9018 15.8831 73.8245 15.8315 73.7713 15.7961L73.7101 15.7554L73.694 15.7447L73.6898 15.742L73.6887 15.7412L73.6884 15.741H73.6883L73.0823 16.6554L73.6883 15.7409L72.4421 14.9151L72.1126 16.0586L70.5449 0.887207ZM60.1615 27.8644V29.8647V29.9621H78.0966V29.8647V27.8644H60.1615ZM78.0966 25.6703V21.9871C77.9323 21.8176 77.7094 21.5916 77.4526 21.3409C76.8929 20.7946 76.2085 20.1673 75.6265 19.7443C75.0165 19.3007 74.3106 18.8114 73.7191 18.4076L72.6564 22.0961L70.511 21.9051L69.5691 12.7899L68.809 21.8837L66.6863 22.1713L65.2863 18.3675C64.68 18.7878 63.9256 19.3082 63.2511 19.7652C62.5382 20.2481 61.6844 20.948 60.9906 21.5457C60.6585 21.8318 60.3702 22.0882 60.1615 22.2764V25.6703H78.0966ZM59.1875 32.1561H79.0706V34.978H59.1875V32.1561ZM59.1875 37.172V39.6275H79.0706V37.172H59.1875ZM58.6448 41.8216H79.9291L80.0446 41.9086V44.6391H58.2135V42.0382L58.5828 41.8527L58.6448 41.8216ZM58.2135 46.8332V49.6508H80.0446V46.8332H58.2135ZM58.2135 51.8448H80.0446V54.6624H58.2135V51.8448ZM58.2135 56.8565V59.674H80.0446V56.8565H58.2135ZM58.2135 61.8681H80.0446V64.6792H58.2135V61.8681ZM58.2135 66.8733V69.6951H80.0446V66.8733H58.2135ZM58.2135 71.8892H80.0446V74.7068H58.2135V71.8892ZM58.2135 76.9008V87.2308H64.4994V80.4533V79.3563H65.5965H71.9561H73.0531V80.4533V87.2308H80.0446V76.9008H58.2135ZM66.6935 81.5504V87.2301H70.859V81.5504H66.6935ZM35.7942 83.6502H36.8913H46.3174H47.4145V84.7472V87.2328H55.3131V85.7573H52.4258H51.3288V84.6602V26.0852L51.3059 25.9991C51.268 25.8574 51.2105 25.649 51.1341 25.3884C50.981 24.8665 50.7528 24.1385 50.4534 23.3179C49.8463 21.6543 48.9788 19.7006 47.9026 18.2957C46.9184 17.0108 45.1765 15.4266 43.619 14.1249C42.8517 13.4836 42.1492 12.9272 41.6385 12.5312L41.4946 12.42L39.5777 13.9893V27.4142V28.5112H38.4807H36.4885H35.3915V27.4142V27.0434H31.2955V87.2328H35.7942V84.7472V83.6502ZM37.9883 85.8442V87.2303H45.2204V85.8442H37.9883ZM7.20858 21.3722H6.45595L6.18506 22.0744L7.20858 22.4692C6.18506 22.0744 6.18496 22.0747 6.18483 22.075L6.18449 22.0759L6.1835 22.0785L6.18031 22.0868L6.1691 22.1164C6.15952 22.1418 6.14577 22.1785 6.12811 22.2265C6.09279 22.3223 6.04183 22.463 5.97728 22.6471C5.84819 23.0154 5.66471 23.5578 5.4434 24.2642C5.00081 25.677 4.40668 27.7464 3.79322 30.3919C2.56646 35.6823 1.26138 43.2809 0.93794 52.5425C0.732133 58.4357 1.47028 65.9158 2.24993 71.8824C2.64087 74.8743 3.04443 77.5016 3.35032 79.3812C3.46062 80.059 3.55826 80.6398 3.63807 81.1057H2.0343H0.937271V82.2028V88.323V89.42H2.0343H25.3185H26.4156V88.323V85.1305H26.4158V84.0335V80.4533V79.3563H26.4156V77.2606H26.4158V76.1635V72.5834V71.4864H26.4156V69.3821H26.4158V68.2851V64.7049V63.6079H26.4156V61.51H26.4158V60.413V56.8329V55.7359H26.4156V53.638H26.4158V52.541V48.9608V47.8638H26.4156V45.7595H26.4158V44.6625V41.0823V39.9853H26.4156V37.8853H26.4158V36.7883V33.2081V32.1111H26.4156V24.1829V23.5937L25.9244 23.2683L23.3372 21.5547L23.0618 21.3722H22.7314H7.20858ZM24.2215 79.3563V77.2606H11.1863H10.0893V76.1635V72.5834V71.4864H11.1863H24.2215V69.3821H11.1863H10.0893V68.2851V64.7049V63.6079H11.1863H24.2215V61.51H11.1863H10.0893V60.413V56.8329V55.7359H11.1863H24.2215V53.638H11.1863H10.0893V52.541V48.9608V47.8638H11.1863H24.2215V45.7595H11.1863H10.0893V44.6625V41.0823V39.9853H11.1863H24.2215V37.8853H11.1863H10.0893V36.7883V33.2081V32.1111H11.1863H24.2215V24.7721L22.401 23.5663H7.98065C7.8651 23.9019 7.71415 24.3551 7.53713 24.9202C7.10974 26.2844 6.53053 28.3003 5.93057 30.8876C4.73049 36.0628 3.44843 43.52 3.13066 52.6191C2.9315 58.322 3.64862 65.6528 4.42548 71.5982C4.8128 74.5623 5.21279 77.1662 5.5159 79.0288C5.66742 79.9599 5.79466 80.7053 5.88389 81.2172C5.92851 81.4731 5.96361 81.6707 5.9875 81.8039L6.01469 81.9546L6.02157 81.9924L6.02326 82.0016L6.02366 82.0038L6.02375 82.0043L4.94483 82.2028L6.02376 82.0043L6.26204 83.2998H4.94483H3.13133V87.226H24.2215V85.1305H11.1863H10.0893V84.0335V80.4533V79.3563H11.1863H24.2215ZM24.2215 81.5504H12.2833V82.9364H24.2215V81.5504ZM24.2215 75.0665V73.6805H12.2833V75.0665H24.2215ZM24.2215 65.802H12.2833V67.188H24.2215V65.802ZM24.2215 59.316V57.9299H12.2833V59.316H24.2215ZM24.2215 51.4439V50.0579H12.2833V51.4439H24.2215ZM24.2215 42.1794H12.2833V43.5654H24.2215V42.1794ZM24.2215 35.6912V34.3052H12.2833V35.6912H24.2215ZM36.8913 40.701H35.7942V41.798V45.3781V46.4751H36.8913H46.3174H47.4145V45.3781V41.798V40.701H46.3174H36.8913ZM37.9883 44.2811V42.895H45.2204V44.2811H37.9883ZM35.7942 32.1111H36.8913H46.3174H47.4145V33.2081V36.7883V37.8853H46.3174H36.8913H35.7942V36.7883V33.2081V32.1111ZM37.9883 34.3052V35.6912H45.2204V34.3052H37.9883ZM36.8913 49.2929H35.7942V50.39V53.9701V55.0671H36.8913H46.3174H47.4145V53.9701V50.39V49.2929H46.3174H36.8913ZM37.9883 52.8731V51.487H45.2204V52.8731H37.9883ZM35.7942 57.8828H36.8913H46.3174H47.4145V58.9798V62.5599V63.657H46.3174H36.8913H35.7942V62.5599V58.9798V57.8828ZM37.9883 60.0768V61.4629H45.2204V60.0768H37.9883ZM35.7942 66.4705H36.8913H46.3174H47.4145V67.5675V71.1476V72.2447H46.3174H36.8913H35.7942V71.1476V67.5675V66.4705ZM37.9883 68.6645V70.0506H45.2204V68.6645H37.9883ZM36.8913 75.0603H35.7942V76.1573V79.7375V80.8345H36.8913H46.3174H47.4145V79.7375V76.1573V75.0603H46.3174H36.8913ZM37.9883 78.6404V77.2544H45.2204V78.6404H37.9883Z" fill="#0A8BFE"/>
</svg>
