<svg  viewBox="0 0 91 30" fill="#fff" xmlns="http://www.w3.org/2000/svg">
<g clip-path="url(#clip0_1_350)">
<path fill-rule="evenodd" clip-rule="evenodd" d="M35.0435 20.3925L39.6922 8.34915H42.1522L46.784 20.3925H44.5275L43.6113 17.926H38.1822L37.283 20.3925H35.0435ZM40.8968 10.5265L38.8269 16.1569H42.9666L40.8968 10.5265ZM55.9426 15.9187C55.9426 18.8615 54.3478 20.5455 52.1252 20.5455C51.26 20.5455 50.5474 20.2904 49.8518 19.8651V23.0801H47.8328V11.4961H49.3767L49.6991 12.3296C50.3438 11.8022 51.1582 11.343 52.3119 11.343C54.3817 11.343 55.9426 13.01 55.9426 15.9187ZM54.0085 15.9187C54.0085 14.0816 53.0753 12.993 51.735 12.993C50.9715 12.993 50.3268 13.3332 49.8518 13.7244V18.2662C50.3777 18.6234 51.0055 18.8955 51.6841 18.8785C53.0584 18.8785 54.0085 17.8579 54.0085 15.9187ZM65.3218 15.9187C65.3218 18.8615 63.727 20.5455 61.5044 20.5455C60.6391 20.5455 59.9266 20.2904 59.231 19.8651V23.0801H57.212V11.4961H58.7559L59.0783 12.3296C59.723 11.8022 60.5373 11.343 61.691 11.343C63.7609 11.343 65.3218 13.01 65.3218 15.9187ZM63.3876 15.9187C63.3876 14.0816 62.4545 12.993 61.1142 12.993C60.3507 12.993 59.706 13.3332 59.2309 13.7244V18.2662C59.7569 18.6234 60.3846 18.8955 61.0633 18.8785C62.4375 18.8785 63.3876 17.8579 63.3876 15.9187ZM74.192 16.5992H68.0163C68.1181 18.062 69.1021 19.0656 70.68 19.0656C71.5113 19.0656 72.4614 18.7935 73.3097 18.3172L73.8526 19.627C72.8516 20.2223 71.6471 20.5455 70.5103 20.5455C67.9145 20.5455 66.1331 18.9466 66.1331 15.9868C66.1331 13.1631 67.8636 11.3089 70.2049 11.3089C72.665 11.3089 74.192 13.2311 74.192 16.0718V16.5992ZM70.188 12.8229C68.9664 12.8229 68.1351 13.8605 68.0163 15.3574H72.3257C72.2069 13.8605 71.4265 12.8229 70.188 12.8229ZM77.3785 20.3925H75.3595V8.04297H77.3785V20.3925ZM81.1419 20.3925H79.1229V8.04297H81.1419V20.3925ZM90.8265 15.9357C90.8265 18.7595 89.0111 20.5796 86.6189 20.5796C84.1927 20.5796 82.4113 18.7765 82.4113 15.9528C82.4113 13.129 84.2266 11.3089 86.6358 11.3089C89.028 11.3089 90.8265 13.112 90.8265 15.9357ZM88.9602 15.9528C88.9602 14.2007 87.9931 12.976 86.6189 12.976C85.2277 12.976 84.2775 14.1837 84.2775 15.9358C84.2775 17.6878 85.2446 18.8955 86.6358 18.8955C87.9931 18.8955 88.9602 17.7048 88.9602 15.9528Z" fill="white"/>
<path fill-rule="evenodd" clip-rule="evenodd" d="M14.8997 0.414354L25.1723 6.36069C26.1267 6.91317 26.7147 7.93418 26.7147 9.03912V20.9318C26.7147 22.0367 26.1267 23.0578 25.1723 23.6102L14.8997 29.5566C13.9453 30.109 12.7694 30.109 11.815 29.5566L1.54237 23.6102C0.587949 23.0578 0 22.0367 0 20.9318V9.03912C0 7.93418 0.587949 6.91317 1.54237 6.36069L11.815 0.414354C12.7694 -0.138118 13.9453 -0.138118 14.8997 0.414354ZM13.3573 10.3463L9.35014 12.6659V17.3051L13.3573 19.6246L17.3645 17.3051V12.6659L13.3573 10.3463Z" fill="white"/>
</g>
<defs>
<clipPath id="clip0_1_350">
<rect width="91" height="30" fill="white"/>
</clipPath>
</defs>
</svg>
